<svg xmlns="http://www.w3.org/2000/svg" viewBox="0 0 1500 500"><defs><style>.cls-1{isolation:isolate;}.cls-2{fill:#fff;}.cls-3{fill:#ed6c00;}.cls-4{fill:#2bb7b3;}.cls-5{fill:#212121;}</style></defs><title>Artboard 1</title><g id="Artboard_1" data-name="Artboard 1" class="cls-1"><g id="Rounded_Rectangle_1" data-name="Rounded Rectangle 1"><rect class="cls-2" width="1500" height="500" rx="100"/></g><g id="Rectangle_1" data-name="Rectangle 1"><rect x="0.01" y="342.81" width="1500" height="14.69"/></g><g id="南_科_一_路" data-name="南 科 一 路"><path class="cls-3" d="M320.4,107.14H240.24a14.9,14.9,0,0,0-8.64,2.64L225.36,98.5a96.74,96.74,0,0,0,12,.72h83.28l.72-15.84q0-12-.48-21.36A216.87,216.87,0,0,1,343.2,64.9q10.32,1.92,12.48,2.88t2.16,2.76q0,1.8-7.2,5.88l-1,22.8h54.48q1.44-2.88,6.48-11.16t6.36-9.6a4.27,4.27,0,0,1,3.12-1.32q1.8,0,8,4.8t13.08,10.32a91.93,91.93,0,0,1,9.12,8q2.28,2.52,2.28,4.2,0,2.64-5,2.64H349.44l-1.2,30h41.28q8.64-14.64,11.76-14.64,2.4,0,17.76,9.24t15.36,12.72q0,3.48-8.4,5.64V255.22a38.16,38.16,0,0,1-1.8,12.84,16.9,16.9,0,0,1-6.48,8.16q-4.68,3.22-13.56,5.15A69.61,69.61,0,0,1,391,283.3q-4.32,0-5.4-.72c-.72-.48-1.24-1.61-1.56-3.36q-1.68-9.62-6.36-13.32A35,35,0,0,0,366,260q-7-2.16-7-3t3.12-.84l10.8.23q12,0,17.64-2.75t5.64-11.4V226.9H348.48V242q0,7.92.24,16.8l.48,8.16a3.78,3.78,0,0,1-.72,2.51c-.48.56-2.32,1.45-5.52,2.65a79.66,79.66,0,0,1-11,3.12,50.61,50.61,0,0,1-9.12,1.32c-1.12,0-1.68-1.21-1.68-3.6l.48-9.36q.24-9.6.24-21.6V226.9H293.52a37.28,37.28,0,0,0-10.32,1.2l-4.08-10.32a52.39,52.39,0,0,0,12,1.2h30.72V196.9H300a37.28,37.28,0,0,0-10.32,1.2l-4.08-10.32a52.39,52.39,0,0,0,12,1.2h38.64a193.07,193.07,0,0,0,13.44-43.92H279.84a9.9,9.9,0,0,1-3.6,2.4V271.53a12.79,12.79,0,0,1-.24,2.88q-.24,1-5.16,3.37a50.88,50.88,0,0,1-12,3.84,69.09,69.09,0,0,1-8.52,1.44c-1,0-1.44-.65-1.44-1.92l.48-10.81c.32-4.64.48-9.59.48-14.88V144.34a148.89,148.89,0,0,0-.72-17,211.88,211.88,0,0,1,30.48,9.84h39.6Zm-29.52,40.08q5.76,0,16.44,2.76t16.08,7.92q5.4,5.16,5.4,11.64a12.88,12.88,0,0,1-5.52,10.68q-5.52,4.2-10.56,4.2t-7.8-2.52a8.8,8.8,0,0,1-2.76-6.84q0-12-2.16-16a22.22,22.22,0,0,0-6.6-7.2q-4.44-3.24-4.44-4T290.88,147.22Zm69.36-2.16q21.84,7.2,21.84,11.28,0,2.4-4.56,3.12-8.88,1.68-34.08,29.52h13.2q7.92-14.4,10.44-14.4t12.84,8.28q10.32,8.28,10.32,11.16T384,196.9H351.6a10.27,10.27,0,0,1-3.12,1.68V219h12.24q6.72-10.56,8.88-13.68t3.36-3.12q3.36,0,23.28,20.16V145.06Z"/><path class="cls-4" d="M543.6,95.62q-27.12,2.16-38.88,2.16-4.56,0-4.56-1t5.52-2.4a373.87,373.87,0,0,0,42.48-13.56q22.32-8.52,35.52-17.4,22.8,22.8,22.8,25.8t-5.76,2.28a59.77,59.77,0,0,0-6.48-.24q-4.56,0-19.68,1.44a6.15,6.15,0,0,1-4.8,5.76v37h7.68q10.56-15.84,11.52-17a2.75,2.75,0,0,1,2.16-1.2q2.4,0,14.4,10.92t12,13.08q0,2.16-4.56,2.16h-43.2V159.7q17,3.12,25.68,7.2t11.16,8.76a21.92,21.92,0,0,1,2.52,10.56q0,5.88-5,10.68t-9.84,4.8a12,12,0,0,1-8-2.76,9.41,9.41,0,0,1-3.48-6.84q-.72-19.2-13-28.56V274.9a4,4,0,0,1-1.92,3.59q-1.92,1.2-9.12,3.13a51.23,51.23,0,0,1-13,1.91,2.54,2.54,0,0,1-2.88-2.87l.48-9.84q.24-10.08.24-22.33v-48a200.8,200.8,0,0,1-28.08,33.24Q500.16,248.26,498,248.26a.21.21,0,0,1-.24-.24c0-.64.72-1.84,2.16-3.61q29.52-37.42,39.84-101H512.64A14.9,14.9,0,0,0,504,146l-6.24-11.28a96.74,96.74,0,0,0,12,.72H543.6Zm149,115.44v41.27q0,11.76.24,16.33l.24,8.64a4.56,4.56,0,0,1-1.2,3.36q-1.2,1.18-7.92,3.24a59.1,59.1,0,0,1-16.8,2q-1.92,0-2.4-1.08a11,11,0,0,1-.48-4V213.46l-64.08,5a19.5,19.5,0,0,0-8.64,3.12l-6.48-11a52.76,52.76,0,0,0,12,.48l67.2-5.28v-119q0-22.08-.48-25.92,5.52.24,18.36,1.92t14.64,2.88a3.3,3.3,0,0,1,1.8,2.64q0,3.12-6,5.28V203.38h.24Q700.8,186.1,703,186.1t12.84,8.52q10.68,8.52,10.68,11t-4.56,3Zm-79-64.08q4.8,0,13.44,2.76a66.86,66.86,0,0,1,14.52,6.36,28.29,28.29,0,0,1,8.76,7.8q2.88,4.2,2.88,10.92a17.53,17.53,0,0,1-5.16,12.24q-5.16,5.52-11.52,5.52t-9.6-4q-3.24-4-2.76-10.2.24-2.64.24-5,0-14.16-9.84-23-2.16-2.16-2.16-2.76T613.68,147Zm2.4-56.4q4.08,0,16.08,3.84t16.68,9.72a20.82,20.82,0,0,1,4.68,13.32,17.35,17.35,0,0,1-5,12.6q-5,5.16-11.16,5.16t-9.48-4q-3.36-4-3.36-7.32a21.1,21.1,0,0,1,.6-5.52,21.1,21.1,0,0,0,.6-5.52q0-12-7.2-18-3.36-2.88-3.36-3.6T616.08,90.58Z"/><path class="cls-5" d="M952.08,164q10.32-22.08,14.64-22.08,4.08,0,18.36,12T999.36,170q0,1.92-4.56,1.92H792.24a14.9,14.9,0,0,0-8.64,2.64l-6.24-11.28a96.74,96.74,0,0,0,12,.72Z"/><path class="cls-5" d="M1119.36,149.14q-1-.48-1-3.6v-6.48h-26.88v4.32a3.76,3.76,0,0,1-1.56,3.12,36.22,36.22,0,0,1-4.68,2.88q-3.12,1.68-9.84,2.28t-8.52.6q-1.8,0-1.8-1.92l.48-10.56q.48-7.2.48-13.2V89.86q0-10.56-.72-20.88a146.87,146.87,0,0,1,26.88,10.08h23.52q5-10.56,6.12-11.76a3.3,3.3,0,0,1,2.52-1.2q1.44,0,9.48,5t13,8.76q4.92,3.72,4.92,5.4,0,2.4-7.92,5.28v26.16q0,12.72.24,16.32l.24,6.72q0,1.44-2.16,3.12a31.14,31.14,0,0,1-7.56,3.72,57.15,57.15,0,0,1-12.6,3q6.72-.24,6.72,2.52t-6,6.12v26.88h1.92q8.64-13.68,9.72-14.88a3.19,3.19,0,0,1,2.4-1.2q1.32,0,8,4.92a102.75,102.75,0,0,1,13.2,11.64A212.62,212.62,0,0,0,1189.92,153,94.44,94.44,0,0,1,1175,125.86a196.68,196.68,0,0,1-16.2,16.68q-9,8.28-13,11.16t-4.92,2.88q-1,0-1-1.08a5.22,5.22,0,0,1,1.2-2.76q25.44-33.36,31.92-91.92,19.44,3.6,27.84,6t10.32,3.72q1.92,1.32,1.92,2.52,0,1.92-3.48,3.24a13.56,13.56,0,0,0-5.76,4.08q-2.28,2.76-6.84,11.88h21.6q6.48-10.32,7.92-12.24A4.15,4.15,0,0,1,1230,78.1q1.92,0,11.52,6.36a156.19,156.19,0,0,1,16,11.88q6.36,5.52,6.36,8.4,0,4.08-8.16,4.56a7.8,7.8,0,0,0-4.44,2q-2,1.8-10.92,13.8t-19,23.28a137.89,137.89,0,0,0,24.84,11.76q12.84,4.56,33.48,8.64,3.6.72,3.6,4t-3.48,4.68q-3.48,1.44-8,6.84a56.3,56.3,0,0,0-7.92,12.6q-1.68,3.84-3.84,3.84-3.36,0-24.24-11.76t-32.64-22.32a199.42,199.42,0,0,1-37,26.16,102.31,102.31,0,0,1,16.56,6.48h37.92q5.28-8.88,7.92-8.88a7.76,7.76,0,0,1,3.84.72l12,6.48q10.8,5.76,12.48,7.56a5.24,5.24,0,0,1,1.68,3.48q0,3.84-7.2,6.24v36c0,8.47.08,13.92.24,16.32l.24,6.72q0,3.1-6.48,5.88t-19.68,2.76c-1.44,0-2.36-.25-2.76-.72s-.6-1.61-.6-3.37V266h-38.64v8.39a3.44,3.44,0,0,1-1.32,2.77,32,32,0,0,1-4.68,2.88q-3.36,1.8-10.44,2.52t-8.88.72c-1.2,0-1.8-.65-1.8-1.93l.48-10.55c.32-4.8.48-9.21.48-13.2V229.78q-35,14.64-61.32,27.12t-30.6,15.36q-4.32,2.88-5.4,2.88a2,2,0,0,1-1.68-.84q-.6-.85-3.72-11.4t-5.52-20.16q4.56-.48,13-1.68V186.34q0-12.72-.48-21.84,20.16,1,25.44,2.52t5.28,4.08q0,2.52-5.28,4.68V237.7l10.56-1.44V168.34q0-11.76-.48-20.64Q1107.36,147.94,1119.36,149.14Zm-1-18V87h-22.8a7.29,7.29,0,0,1-4.08,2.88v41.28Zm38.88,66.24q-24,10.56-27.12,10.56-1,0-1-.72,0-1.44,6.12-5.28t13.08-8.88h-25.68v39.36l34.8-6v-15.6Zm35.52-97.2a150.46,150.46,0,0,1-10.8,16.56q6.72,9.12,19.92,19a193.07,193.07,0,0,0,17.52-35.52Zm-4.8,107a6.58,6.58,0,0,1-4.32,3.6V258.1h38.64V207.22Z"/></g><g id="南"><path class="cls-5" d="M97.72,166.05H69.33a5.25,5.25,0,0,0-3.06.94l-2.21-4a34.28,34.28,0,0,0,4.25.26h29.5l.25-5.61c0-2.84,0-5.36-.17-7.57a78.67,78.67,0,0,1,7.91,1,31.2,31.2,0,0,1,4.42,1,1.07,1.07,0,0,1,.76,1c0,.42-.85,1.12-2.55,2.08l-.34,8.08h19.3q.51-1,2.29-4a29.63,29.63,0,0,1,2.25-3.4,1.53,1.53,0,0,1,1.11-.46c.43,0,1.37.56,2.85,1.7s3,2.35,4.63,3.65a33.54,33.54,0,0,1,3.23,2.85,2.49,2.49,0,0,1,.81,1.49c0,.62-.6.93-1.79.93H108l-.43,10.63H122.2q3.06-5.19,4.17-5.19.84,0,6.29,3.27c3.62,2.19,5.44,3.69,5.44,4.51s-1,1.49-3,2V218.5a13.3,13.3,0,0,1-.64,4.54,5.94,5.94,0,0,1-2.29,2.89,13.51,13.51,0,0,1-4.8,1.83,24.93,24.93,0,0,1-4.68.68,4.28,4.28,0,0,1-1.91-.25,1.76,1.76,0,0,1-.55-1.19q-.6-3.41-2.26-4.72a12.36,12.36,0,0,0-4.12-2.08c-1.64-.51-2.46-.87-2.46-1.07s.37-.29,1.1-.29l3.83.08a14.8,14.8,0,0,0,6.24-1c1.34-.65,2-2,2-4v-5.44H107.67v5.35c0,1.87,0,3.86.08,6l.17,2.89a1.33,1.33,0,0,1-.25.89,6.64,6.64,0,0,1-2,.94,27.35,27.35,0,0,1-3.91,1.1,17.77,17.77,0,0,1-3.23.47c-.4,0-.59-.42-.59-1.27l.17-3.32c0-2.27.08-4.81.08-7.65v-5.35h-10a13.31,13.31,0,0,0-3.65.42l-1.45-3.65a18.79,18.79,0,0,0,4.25.42H98.23v-7.82H90.5a13,13,0,0,0-3.66.43l-1.44-3.66a18.68,18.68,0,0,0,4.25.43h13.68a68.63,68.63,0,0,0,4.76-15.56H83.36a3.51,3.51,0,0,1-1.28.85v43.95a5.09,5.09,0,0,1-.08,1c-.06.22-.67.62-1.83,1.19a18.17,18.17,0,0,1-4.25,1.36,24.42,24.42,0,0,1-3,.51c-.34,0-.51-.23-.51-.68l.17-3.83c.11-1.64.17-3.4.17-5.27V179.23a53,53,0,0,0-.25-6,74.72,74.72,0,0,1,10.79,3.49h14Zm-10.45,14.2a25.2,25.2,0,0,1,5.82,1A12.78,12.78,0,0,1,98.78,184a5.57,5.57,0,0,1,1.92,4.12,4.54,4.54,0,0,1-2,3.78A6.2,6.2,0,0,1,95,193.42a4,4,0,0,1-2.76-.89,3.13,3.13,0,0,1-1-2.42c0-2.84-.25-4.72-.76-5.66a8,8,0,0,0-2.34-2.55c-1-.76-1.57-1.23-1.57-1.4S86.81,180.25,87.27,180.25Zm24.56-.77q7.74,2.55,7.74,4c0,.56-.54.93-1.62,1.1q-3.14.6-12.07,10.46h4.68q2.81-5.1,3.69-5.1c.6,0,2.12,1,4.55,2.93s3.66,3.27,3.66,3.95-.74,1-2.21,1H108.77a3.74,3.74,0,0,1-1.1.6v7.22H112c1.59-2.49,2.64-4.11,3.15-4.84s.9-1.11,1.19-1.11q1.18,0,8.24,7.14V179.48Z"/></g><g id="S"><path class="cls-5" d="M178.21,441.41a20.9,20.9,0,0,0,10,2.62c4.8,0,7.49-2.25,7.49-5.63,0-3.11-2.08-4.95-7.3-6.84-6.82-2.42-11.17-6.07-11.17-12,0-6.75,5.65-11.84,14.6-11.84a21.91,21.91,0,0,1,9.89,2l-1.81,6.08a17.83,17.83,0,0,0-8.24-2c-4.78,0-6.81,2.54-6.81,5,0,3.16,2.38,4.65,7.89,6.75,7.17,2.74,10.61,6.34,10.61,12.26,0,6.64-5,12.4-15.64,12.4-4.37,0-8.9-1.24-11.15-2.62Z"/></g><g id="N"><path class="cls-5" d="M1308.29,449.62V408.37h8.62l10.65,17.71a114.6,114.6,0,0,1,7,13.82l.15,0c-.53-5.47-.67-10.79-.67-17.09v-14.4h7v41.25h-7.81l-10.76-18.14a141.56,141.56,0,0,1-7.39-14.23l-.2,0c.3,5.35.4,10.8.4,17.58v14.75Z"/></g><g id="北"><path class="cls-5" d="M1388.59,179.31H1373a5.25,5.25,0,0,0-3.06.94l-2.21-4a34.28,34.28,0,0,0,4.25.26h16.58V158.83q0-4.26-.17-7.57a57.14,57.14,0,0,1,10,1.53c1.51.51,2.26,1.06,2.26,1.66s-.57,1.23-1.7,1.91V223a2.15,2.15,0,0,1-.17,1,6,6,0,0,1-2,1,26.33,26.33,0,0,1-4.72,1.23c-1.9.34-3,.51-3.32.51s-.46-.23-.46-.68l.17-4q.16-4.17.17-7.57v-9.6q-5.1,4.24-8,7t-6.89,7.4c-.39.45-.72.68-1,.68a1,1,0,0,1-.77-.51c-.26-.34-1.06-1.7-2.42-4.08a54.84,54.84,0,0,1-3.49-7.31,191.85,191.85,0,0,0,22.53-6.38Zm28.56,4.51q6.28-6,12.92-19.47,11.73,7.4,11.73,9.27c0,.62-.74,1.07-2.21,1.36a33.58,33.58,0,0,0-7,2.72q-4.8,2.3-15.42,7.9v24.74a4.66,4.66,0,0,0,1.53,3.86q1.53,1.25,5.69,1.24a15.06,15.06,0,0,0,6.21-1,6,6,0,0,0,3-3.87,79.83,79.83,0,0,0,2.13-10.62c0-.57.27-.85.64-.85s.52.28.46.85c-.22,2.21-.34,4.22-.34,6a7.64,7.64,0,0,0,1,4.21,9.59,9.59,0,0,0,3.44,2.85c1.65.9,2.47,2,2.47,3.4s-.82,2.84-2.47,4.46a10.57,10.57,0,0,1-6.12,2.93,90.53,90.53,0,0,1-11.35.51c-5.12,0-8.74-.4-10.83-1.19a7.48,7.48,0,0,1-4.38-3.82q-1.23-2.64-1.23-8V160.1q0-5.78-.26-9.52c6.07.57,9.66,1,10.8,1.45s1.7,1,1.7,1.78-.68,1.5-2,2.13Z"/></g><g id="Nanke_1st_Road" data-name="Nanke 1st Road"><path class="cls-3" d="M447.91,461.9V393.15h14.35L480,422.66a193,193,0,0,1,11.7,23l.25-.06c-.89-9.13-1.13-18-1.13-28.5v-24h11.61V461.9h-13L471.5,431.66a235.7,235.7,0,0,1-12.33-23.72l-.32.07c.5,8.93.67,18,.67,29.3V461.9Z"/><path class="cls-3" d="M539.37,461.9l-.86-5.53h-.3c-3,3.92-8.21,6.66-14.64,6.66-10.07,0-15.65-7.2-15.65-14.77,0-12.54,11.16-18.88,29.45-18.81v-.82c0-3.26-1.29-8.69-10.08-8.66a26.41,26.41,0,0,0-13.35,3.71l-2.49-8.15c3.75-2.28,10.18-4.41,18-4.41,15.93,0,20.47,10.05,20.47,20.94v17.88a75.2,75.2,0,0,0,.77,12Zm-1.67-24.32c-8.86-.11-17.33,1.75-17.33,9.32,0,4.86,3.19,7.15,7.16,7.15a10.22,10.22,0,0,0,9.82-6.87,9.52,9.52,0,0,0,.35-2.73Z"/><path class="cls-3" d="M558.15,427c0-5.73-.18-10.46-.41-14.77h11l.62,7.46h.29a18.1,18.1,0,0,1,15.83-8.58c8.66,0,17.65,5.58,17.65,21.29V461.9H590.53v-28c0-7.13-2.61-12.56-9.47-12.56a10.43,10.43,0,0,0-9.77,7.37,12.2,12.2,0,0,0-.57,4V461.9H558.15Z"/><path class="cls-4" d="M623.93,434h.21c1.18-1.94,2.62-4,3.91-5.83l12.12-15.95h15.08l-18.41,20.28,21,29.38h-15.4L628.16,440l-4.23,5V461.9H611.38V389.48h12.55Z"/><path class="cls-4" d="M666.33,440.55c.34,9,7.3,12.93,15.34,12.93a37.61,37.61,0,0,0,13.7-2.3l1.86,8.64A44.76,44.76,0,0,1,679.88,463c-16.12,0-25.57-10-25.57-25.18,0-13.71,8.32-26.68,24.29-26.68,16.14,0,21.4,13.27,21.4,24.16a26.17,26.17,0,0,1-.45,5.27Zm21.84-8.75c.06-4.6-1.94-12.1-10.35-12.1-7.73,0-11,7-11.51,12.1Z"/><path class="cls-5" d="M738.33,407h-.21L726,413l-2.19-9.47,16.19-8h10.46v66.3H738.33Z"/><path class="cls-5" d="M770,450.36A27.66,27.66,0,0,0,782.68,454c5.52,0,8-2.32,8-5.58s-2-5.07-8.16-7.24c-9.72-3.32-13.77-8.61-13.72-14.5,0-8.73,7.26-15.54,18.84-15.54a28.61,28.61,0,0,1,13.17,3l-2.49,8.81a22.57,22.57,0,0,0-10.5-2.85c-4.47,0-6.95,2.2-6.95,5.26s2.39,4.66,8.67,6.95c9,3.2,13.2,7.81,13.25,15.13,0,9.05-7.06,15.59-20.17,15.59a32.18,32.18,0,0,1-15.13-3.48Z"/><path class="cls-5" d="M822.41,398v14.22h12v9.36h-12v21.91c0,6.08,1.62,9.17,6.42,9.17a18.64,18.64,0,0,0,4.88-.55l.25,9.56a28.31,28.31,0,0,1-9.13,1.29c-4.62,0-8.46-1.58-10.8-4.1-2.69-2.85-3.92-7.42-3.92-13.93V421.6H803v-9.36h7.09V401Z"/><path class="cls-5" d="M855.18,394.1a113.77,113.77,0,0,1,19.05-1.48c9.85,0,16.58,1.66,21.2,5.54,3.79,3.15,5.93,7.91,5.93,13.81,0,8.85-6,14.89-12.51,17.17v.29c5,1.89,7.89,6.63,9.59,13.31,2.19,8.6,4.06,16.49,5.43,19.16H891c-1.07-2-2.71-7.66-4.64-16.22-2-9-5.23-11.87-12.37-12h-6.32V461.9H855.18Zm12.47,30.34h7.43c8.52,0,13.76-4.49,13.76-11.32,0-7.48-5.27-11-13.39-11a34.84,34.84,0,0,0-7.8.64Z"/><path class="cls-5" d="M955.18,436.59c0,18.25-12.81,26.44-25.51,26.44-14,0-24.85-9.67-24.85-25.59,0-16.29,10.73-26.32,25.69-26.32C945.29,411.12,955.18,421.53,955.18,436.59Zm-37.46.54c0,9.55,4.77,16.77,12.35,16.77,7.2,0,12.2-6.95,12.2-16.94,0-7.8-3.45-16.71-12.12-16.71S917.72,428.85,917.72,437.13Z"/><path class="cls-5" d="M988.36,461.9l-.86-5.53h-.3c-3,3.92-8.21,6.66-14.63,6.66-10.08,0-15.66-7.2-15.66-14.77,0-12.54,11.16-18.88,29.45-18.81v-.82c0-3.26-1.29-8.69-10.08-8.66a26.47,26.47,0,0,0-13.35,3.71l-2.49-8.15c3.75-2.28,10.18-4.41,18-4.41,15.93,0,20.48,10.05,20.48,20.94v17.88a74,74,0,0,0,.77,12Zm-1.66-24.32c-8.86-.11-17.34,1.75-17.34,9.32,0,4.86,3.19,7.15,7.16,7.15a10.24,10.24,0,0,0,9.83-6.87,9.52,9.52,0,0,0,.35-2.73Z"/><path class="cls-5" d="M1052.89,389.48V448c0,5.09.19,10.55.41,13.92h-11.18l-.56-7.86h-.23c-3,5.56-9,9-16.12,9-11.86,0-21.25-10.12-21.25-25.38-.08-16.64,10.32-26.53,22.26-26.53,6.8,0,11.7,2.81,13.92,6.47h.2V389.48Zm-12.55,43.45a16.55,16.55,0,0,0-.28-3.27,11,11,0,0,0-10.79-8.82c-8.1,0-12.58,7.14-12.58,16.34s4.52,15.79,12.43,15.79A11.13,11.13,0,0,0,1040,444a14.72,14.72,0,0,0,.38-3.67Z"/></g></g></svg>